<svg width="1300" height="256" viewBox="0 0 1300 256" fill="none" xmlns="http://www.w3.org/2000/svg">
<g filter="url(#filter0_d_261_15)">
<path d="M105.029 90.0341L125.937 24.6303L146.846 90.0341C147.972 93.5558 151.245 95.9458 154.942 95.9458H222.929L167.809 136.649C164.878 138.813 163.652 142.605 164.761 146.075L185.753 211.739L130.987 171.297C127.985 169.081 123.89 169.081 120.888 171.297L66.1219 211.739L87.1135 146.075C88.2229 142.605 86.9973 138.813 84.0664 136.649L28.9459 95.9458H96.9326C100.63 95.9458 103.903 93.5558 105.029 90.0341Z" fill="#FAFF00" stroke="black" stroke-width="15"/>
<path d="M366.654 90.0341L387.563 24.6303L408.471 90.0341C409.597 93.5558 412.871 95.9458 416.568 95.9458H484.554L429.434 136.649C426.503 138.813 425.277 142.605 426.387 146.075L447.379 211.739L392.612 171.297C389.611 169.081 385.515 169.081 382.514 171.297L327.747 211.739L348.739 146.075C349.848 142.605 348.623 138.813 345.692 136.649L290.571 95.9458H358.558C362.255 95.9458 365.529 93.5558 366.654 90.0341Z" fill="#FAFF00" stroke="black" stroke-width="15"/>
<path d="M628.906 90.0492L650 24.4871L671.094 90.0492C672.225 93.5633 675.494 95.9458 679.186 95.9458H747.646L692.189 136.635C689.239 138.799 688.005 142.609 689.126 146.092L710.271 211.81L655.028 171.279C652.036 169.083 647.964 169.083 644.972 171.279L589.729 211.811L610.874 146.092C611.995 142.609 610.761 138.799 607.811 136.635L552.354 95.9458H620.814C624.506 95.9458 627.775 93.5632 628.906 90.0492Z" fill="#FAFF00" stroke="black" stroke-width="15"/>
<path d="M891.529 90.0341L912.437 24.6303L933.346 90.0341C934.472 93.5558 937.745 95.9458 941.442 95.9458H1009.43L954.309 136.649C951.378 138.813 950.152 142.605 951.261 146.075L972.253 211.739L917.487 171.297C914.485 169.081 910.39 169.081 907.388 171.297L852.622 211.739L873.613 146.075C874.723 142.605 873.497 138.813 870.566 136.649L815.446 95.9458H883.433C887.13 95.9458 890.403 93.5558 891.529 90.0341Z" fill="#FAFF00" stroke="black" stroke-width="15"/>
<path d="M1153.15 90.0341L1174.06 24.6303L1194.97 90.0341C1196.1 93.5558 1199.37 95.9458 1203.07 95.9458H1271.05L1215.93 136.649C1213 138.813 1211.78 142.605 1212.89 146.075L1233.88 211.739L1179.11 171.297C1176.11 169.081 1172.02 169.081 1169.01 171.297L1114.25 211.739L1135.24 146.075C1136.35 142.605 1135.12 138.813 1132.19 136.649L1077.07 95.9458H1145.06C1148.76 95.9458 1152.03 93.5558 1153.15 90.0341Z" fill="#FAFF00" stroke="black" stroke-width="15"/>
</g>
<defs>
<filter id="filter0_d_261_15" x="4.19971" y="2.26514" width="1291.6" height="235.661" filterUnits="userSpaceOnUse" color-interpolation-filters="sRGB">
<feFlood flood-opacity="0" result="BackgroundImageFix"/>
<feColorMatrix in="SourceAlpha" type="matrix" values="0 0 0 0 0 0 0 0 0 0 0 0 0 0 0 0 0 0 127 0" result="hardAlpha"/>
<feOffset dy="4"/>
<feGaussianBlur stdDeviation="2"/>
<feComposite in2="hardAlpha" operator="out"/>
<feColorMatrix type="matrix" values="0 0 0 0 0 0 0 0 0 0 0 0 0 0 0 0 0 0 0.25 0"/>
<feBlend mode="normal" in2="BackgroundImageFix" result="effect1_dropShadow_261_15"/>
<feBlend mode="normal" in="SourceGraphic" in2="effect1_dropShadow_261_15" result="shape"/>
</filter>
</defs>
</svg>
